<svg xmlns="http://www.w3.org/2000/svg" id="a" viewBox="0 0 454.85 145.82" width="454.8500061035156" height="145.82000732421875"><path d="m51.7,93.33c-16.8-1.72-34.16.88-51.7,7.71,9.77,11.56,21.11,21.28,34.03,29.17,14.15,8.51,29.01,13.59,44.19,15.12,16.77,1.69,34.05-.99,51.48-7.95-9.71-11.49-20.98-21.14-33.83-28.96-14.1-8.45-28.96-13.53-44.17-15.08Z" fill="#e0eedd" stroke-width="0"></path><path d="m117.32,91.04c-7.98-14.37-18.31-26.2-30.71-35.15-13.69-9.89-30.02-16.32-48.63-19.17,2.68,14.89,7.64,28.98,14.88,42.28,1.8,3.24,3.71,6.35,5.75,9.33,36.08,5.91,61.38,29.24,73.07,42.35-2.76-13.95-7.54-27.17-14.36-39.64Z" fill="#367141" stroke-width="0"></path><path d="m137.97,46.79c5.75,15.36,7.77,32.26,6.02,50.22-1.07,10.67-3.33,21.07-6.78,31.22-3.57-17.2-13.81-50.06-42.11-73.22-.51-7.06-.42-14.11.29-21.16,1.17-11.6,3.72-22.88,7.65-33.85,16.53,13.25,28.27,28.96,34.94,46.79Z" fill="#ef9a9b" stroke-width="0"></path><path d="m173.78,24.57c2.18,0,4.17.22,5.98.67,1.8.45,3.2.88,4.19,1.29l-2.25,9.23c-1.03-.47-2.16-.82-3.38-1.04-1.22-.23-2.35-.35-3.38-.35-1.41,0-2.58.2-3.54.58-.95.39-1.7.92-2.25,1.58-.54.67-.93,1.47-1.17,2.42-.22.93-.33,1.94-.33,3.02v2.02h14.27v9.63h-14.27v31.19h-11.56v-43c0-5.28,1.48-9.46,4.46-12.56,2.97-3.11,7.38-4.67,13.23-4.67Z" fill="#367141" stroke-width="0"></path><path d="m186.91,64.7c0-3.63.55-6.79,1.67-9.5,1.11-2.72,2.57-4.98,4.38-6.79,1.82-1.8,3.9-3.17,6.25-4.1,2.36-.94,4.78-1.42,7.25-1.42,5.8,0,10.39,1.78,13.75,5.33,3.36,3.54,5.04,8.75,5.04,15.63,0,.68-.03,1.43-.08,2.23-.06.79-.1,1.5-.15,2.13h-26.23c.25,2.38,1.35,4.27,3.31,5.67,1.97,1.39,4.61,2.08,7.94,2.08,2.11,0,4.19-.19,6.23-.58,2.05-.39,3.73-.86,5.02-1.44l1.54,9.4c-.61.32-1.44.64-2.48.94-1.03.31-2.18.57-3.46.81-1.27.23-2.63.43-4.08.58-1.45.15-2.89.23-4.33.23-3.67,0-6.86-.54-9.58-1.63-2.71-1.08-4.96-2.57-6.75-4.46-1.78-1.89-3.1-4.13-3.96-6.71-.85-2.59-1.27-5.4-1.27-8.4Zm27.15-4.42c-.04-.98-.21-1.94-.5-2.88-.28-.93-.72-1.76-1.31-2.48-.6-.72-1.35-1.31-2.25-1.77-.91-.47-2.03-.71-3.38-.71s-2.41.22-3.33.67c-.93.43-1.71,1.01-2.33,1.73-.63.72-1.1,1.56-1.44,2.52s-.58,1.93-.73,2.92h15.27Z" fill="#367141" stroke-width="0"></path><path d="m256.58,63.16c0-3.72-.48-6.36-1.44-7.92-.96-1.55-2.6-2.33-4.92-2.33-.72,0-1.47.04-2.25.13-.78.07-1.53.16-2.25.27v31.5h-11.56v-39.42c.98-.26,2.14-.53,3.46-.81,1.32-.29,2.71-.55,4.19-.77,1.47-.23,2.98-.42,4.52-.54,1.55-.14,3.08-.21,4.58-.21,2.96,0,5.35.38,7.19,1.13s3.34,1.64,4.54,2.67c1.65-1.18,3.55-2.1,5.69-2.77,2.15-.68,4.14-1.02,5.96-1.02,3.25,0,5.92.45,8.02,1.35,2.09.91,3.76,2.19,5,3.85,1.25,1.66,2.1,3.62,2.56,5.9.47,2.28.71,4.81.71,7.6v23.04h-11.56v-21.65c0-3.72-.48-6.36-1.44-7.92-.96-1.55-2.6-2.33-4.94-2.33-.61,0-1.48.16-2.6.48-1.11.31-2.03.69-2.75,1.15.36,1.2.59,2.45.69,3.77.11,1.32.17,2.73.17,4.23v22.27h-11.56v-21.65Z" fill="#367141" stroke-width="0"></path><path d="m300.66,33.82l11.56-1.88v12.04h13.9v9.63h-13.9v14.35c0,2.43.42,4.37,1.27,5.81.86,1.45,2.58,2.17,5.17,2.17,1.25,0,2.53-.11,3.85-.33,1.32-.23,2.52-.56,3.6-.98l1.63,9c-1.39.57-2.94,1.06-4.65,1.48s-3.81.63-6.29.63c-3.16,0-5.77-.43-7.83-1.27-2.07-.86-3.73-2.05-4.98-3.58-1.24-1.53-2.1-3.38-2.6-5.54-.49-2.18-.73-4.59-.73-7.23v-34.29Z" fill="#367141" stroke-width="0"></path><path d="m333.57,64.7c0-3.63.55-6.79,1.67-9.5,1.11-2.72,2.57-4.98,4.38-6.79,1.82-1.8,3.9-3.17,6.25-4.1,2.36-.94,4.78-1.42,7.25-1.42,5.8,0,10.39,1.78,13.75,5.33,3.36,3.54,5.04,8.75,5.04,15.63,0,.68-.03,1.43-.08,2.23-.06.79-.1,1.5-.15,2.13h-26.23c.25,2.38,1.35,4.27,3.31,5.67,1.97,1.39,4.61,2.08,7.94,2.08,2.11,0,4.19-.19,6.23-.58,2.05-.39,3.73-.86,5.02-1.44l1.54,9.4c-.61.32-1.44.64-2.48.94-1.03.31-2.18.57-3.46.81-1.27.23-2.63.43-4.08.58-1.45.15-2.89.23-4.33.23-3.67,0-6.86-.54-9.58-1.63-2.71-1.08-4.96-2.57-6.75-4.46-1.78-1.89-3.1-4.13-3.96-6.71-.85-2.59-1.27-5.4-1.27-8.4Zm27.15-4.42c-.04-.98-.21-1.94-.5-2.88-.28-.93-.72-1.76-1.31-2.48-.6-.72-1.35-1.31-2.25-1.77-.91-.47-2.03-.71-3.38-.71s-2.41.22-3.33.67c-.93.43-1.71,1.01-2.33,1.73-.63.72-1.1,1.56-1.44,2.52s-.58,1.93-.73,2.92h15.27Z" fill="#367141" stroke-width="0"></path><path d="m378.89,64.39c0-2.94.47-5.72,1.42-8.33.96-2.61,2.34-4.89,4.15-6.83,1.82-1.94,4.02-3.48,6.6-4.63,2.59-1.14,5.55-1.71,8.85-1.71,2.18,0,4.17.2,5.98.58,1.8.39,3.56.95,5.27,1.69l-2.4,9.23c-1.08-.42-2.28-.78-3.58-1.08-1.29-.32-2.74-.48-4.33-.48-3.42,0-5.97,1.06-7.65,3.19-1.68,2.13-2.52,4.92-2.52,8.38,0,3.68.78,6.53,2.35,8.54,1.58,2.02,4.34,3.02,8.27,3.02,1.4,0,2.9-.13,4.5-.38,1.61-.26,3.09-.68,4.44-1.25l1.63,9.48c-1.35.57-3.04,1.05-5.06,1.46-2.02.42-4.24.63-6.67.63-3.72,0-6.93-.56-9.63-1.67-2.68-1.11-4.89-2.63-6.63-4.54-1.74-1.92-3.01-4.18-3.81-6.79-.79-2.61-1.19-5.44-1.19-8.5Z" fill="#367141" stroke-width="0"></path><path d="m419.63,84.8V26.45l11.56-1.88v19.56c.78-.26,1.77-.51,2.98-.73,1.22-.23,2.4-.35,3.54-.35,3.3,0,6.05.45,8.25,1.35,2.21.91,3.97,2.19,5.29,3.85,1.32,1.66,2.25,3.62,2.79,5.9.54,2.28.81,4.81.81,7.6v23.04h-11.56v-21.65c0-3.72-.48-6.36-1.44-7.92-.96-1.55-2.73-2.33-5.31-2.33-1.04,0-2.02.09-2.92.27-.91.18-1.72.38-2.44.58v31.04h-11.56Z" fill="#367141" stroke-width="0"></path><path d="m168.71,128.73c-4.07,0-7.17-1.13-9.29-3.4-2.13-2.26-3.19-5.47-3.19-9.63,0-2.07.32-3.92.96-5.54.65-1.63,1.54-3,2.67-4.13,1.14-1.13,2.48-1.97,4.04-2.54,1.57-.58,3.27-.88,5.1-.88,1.05,0,2.01.08,2.88.25.88.16,1.64.33,2.29.54.65.2,1.19.41,1.63.63.43.21.74.38.94.5l-1.63,4.56c-.77-.42-1.66-.77-2.69-1.06-1.03-.29-2.19-.44-3.48-.44-.88,0-1.73.15-2.56.44-.82.29-1.55.76-2.19,1.4-.64.64-1.16,1.47-1.54,2.48-.39,1-.58,2.22-.58,3.67,0,1.17.13,2.25.38,3.25.26.99.67,1.84,1.23,2.56.57.72,1.31,1.3,2.23,1.73.92.42,2.03.63,3.33.63.8,0,1.53-.05,2.19-.15.65-.09,1.23-.21,1.73-.33.51-.14.96-.29,1.33-.46.39-.17.74-.32,1.06-.46l1.54,4.5c-.79.49-1.91.93-3.35,1.31-1.45.38-3.12.56-5.02.56Z" fill="#59595b" stroke-width="0"></path><path d="m197.45,128.23c-.27-.86-.56-1.75-.9-2.67-.32-.92-.64-1.83-.96-2.75h-9.75c-.31.92-.63,1.83-.96,2.75-.32.92-.61,1.81-.88,2.67h-5.85c.94-2.69,1.83-5.18,2.67-7.46.84-2.29,1.67-4.45,2.48-6.48.8-2.03,1.59-3.94,2.38-5.75.79-1.82,1.61-3.59,2.46-5.33h5.38c.82,1.74,1.63,3.52,2.42,5.33.79,1.81,1.59,3.72,2.4,5.75.8,2.03,1.63,4.19,2.48,6.48.84,2.28,1.73,4.77,2.67,7.46h-6.02Zm-6.75-19.35c-.13.36-.31.85-.56,1.48-.24.63-.52,1.35-.83,2.17-.31.82-.65,1.72-1.02,2.71-.36.99-.74,2.02-1.13,3.1h7.1c-.38-1.08-.74-2.11-1.1-3.1-.36-.98-.71-1.89-1.04-2.71-.32-.82-.6-1.54-.85-2.17-.24-.63-.43-1.11-.56-1.48Z" fill="#59595b" stroke-width="0"></path><path d="m223.49,128.23c-1.61-2.86-3.35-5.69-5.23-8.48s-3.87-5.43-5.98-7.92v16.4h-5.56v-25.02h4.58c.79.79,1.67,1.77,2.63,2.94.97,1.16,1.95,2.39,2.94,3.69,1,1.31,1.99,2.67,2.98,4.08,1,1.41,1.93,2.76,2.79,4.06v-14.77h5.6v25.02h-4.75Z" fill="#59595b" stroke-width="0"></path><path d="m250.76,128.23c-.27-.86-.56-1.75-.9-2.67-.32-.92-.64-1.83-.96-2.75h-9.75c-.31.92-.63,1.83-.96,2.75-.32.92-.61,1.81-.88,2.67h-5.85c.94-2.69,1.83-5.18,2.67-7.46.84-2.29,1.67-4.45,2.48-6.48.8-2.03,1.59-3.94,2.38-5.75.79-1.82,1.61-3.59,2.46-5.33h5.38c.82,1.74,1.63,3.52,2.42,5.33.79,1.81,1.59,3.72,2.4,5.75.8,2.03,1.63,4.19,2.48,6.48.84,2.28,1.73,4.77,2.67,7.46h-6.02Zm-6.75-19.35c-.13.36-.31.85-.56,1.48-.24.63-.52,1.35-.83,2.17-.31.82-.65,1.72-1.02,2.71-.36.99-.74,2.02-1.13,3.1h7.1c-.38-1.08-.74-2.11-1.1-3.1-.36-.98-.71-1.89-1.04-2.71-.32-.82-.6-1.54-.85-2.17-.24-.63-.43-1.11-.56-1.48Z" fill="#59595b" stroke-width="0"></path><path d="m265.66,123.64c.26.03.57.05.92.06h1.25c2.82,0,4.91-.71,6.27-2.13,1.36-1.42,2.04-3.38,2.04-5.88,0-2.63-.66-4.61-1.96-5.96-1.31-1.34-3.36-2.02-6.17-2.02-.39,0-.79.01-1.21.02-.41,0-.79.03-1.15.08v15.81Zm16.29-7.94c0,2.17-.34,4.06-1.02,5.67-.67,1.61-1.63,2.95-2.88,4-1.24,1.06-2.74,1.85-4.52,2.4-1.78.53-3.78.79-6,.79-1.02,0-2.2-.05-3.54-.15-1.35-.08-2.67-.26-3.96-.52v-24.35c1.29-.25,2.64-.42,4.04-.5,1.42-.08,2.63-.13,3.65-.13,2.14,0,4.07.24,5.81.73,1.75.47,3.25,1.23,4.5,2.27,1.26,1.04,2.23,2.37,2.9,3.98.68,1.61,1.02,3.55,1.02,5.81Z" fill="#59595b" stroke-width="0"></path><path d="m303.39,128.23c-.27-.86-.56-1.75-.9-2.67-.32-.92-.64-1.83-.96-2.75h-9.75c-.31.92-.63,1.83-.96,2.75-.32.92-.61,1.81-.88,2.67h-5.85c.94-2.69,1.83-5.18,2.67-7.46.84-2.29,1.67-4.45,2.48-6.48.8-2.03,1.59-3.94,2.38-5.75.79-1.82,1.61-3.59,2.46-5.33h5.38c.82,1.74,1.63,3.52,2.42,5.33.79,1.81,1.59,3.72,2.4,5.75.8,2.03,1.63,4.19,2.48,6.48.84,2.28,1.73,4.77,2.67,7.46h-6.02Zm-6.75-19.35c-.13.36-.31.85-.56,1.48-.24.63-.52,1.35-.83,2.17-.31.82-.65,1.72-1.02,2.71-.36.99-.74,2.02-1.13,3.1h7.1c-.38-1.08-.74-2.11-1.1-3.1-.36-.98-.71-1.89-1.04-2.71-.32-.82-.6-1.54-.85-2.17-.24-.63-.43-1.11-.56-1.48Z" fill="#59595b" stroke-width="0"></path></svg>